<svg width="31" height="20" viewBox="0 0 31 20" fill="none" xmlns="http://www.w3.org/2000/svg">
<g clip-path="url(#clip0_48_335)">
<path d="M28.2771 6.00505H27.7491V4.41747C27.7491 2.37629 26.087 0.714233 24.0458 0.714233H7.12064C5.07946 0.714233 3.41741 2.37629 3.41741 4.41747V6.00505H2.88934C2.016 6.00505 1.30176 6.71929 1.30176 7.59263V14.9991C1.30176 16.2753 2.21233 17.3415 3.41741 17.592V18.1743C3.41741 19.0476 4.13165 19.7619 5.00499 19.7619H6.06112C6.93446 19.7619 7.64871 19.0476 7.64871 18.1743V17.6462H23.5144V18.1743C23.5144 19.0476 24.2286 19.7619 25.102 19.7619H26.1581C27.0314 19.7619 27.7457 19.0476 27.7457 18.1743V17.592C28.9508 17.3483 29.8613 16.2786 29.8613 14.9991V7.59263C29.8613 6.71929 29.1471 6.00505 28.2738 6.00505H28.2771ZM4.47693 4.41747C4.47693 2.95851 5.66169 1.77375 7.12064 1.77375H24.0458C25.5048 1.77375 26.6896 2.95851 26.6896 4.41747V6.00505H26.1615C25.2882 6.00505 24.5739 6.71929 24.5739 7.59263V10.3108C23.8901 9.6135 22.9491 9.18022 21.9302 9.18022H9.23629C8.21401 9.18022 7.27297 9.6135 6.59258 10.3108V7.59263C6.59258 6.71929 5.87833 6.00505 5.00499 6.00505H4.47693V4.41747ZM6.70767 12.1387C7.02925 11.0285 8.06168 10.2364 9.23629 10.2364H21.9302C23.1048 10.2364 24.1372 11.0285 24.4588 12.1387C24.364 12.2674 24.2151 12.3486 24.0458 12.3486H7.12064C6.95139 12.3486 6.80245 12.264 6.70767 12.1387ZM6.59258 18.1675C6.59258 18.4586 6.35562 18.6956 6.06451 18.6956H5.00838C4.71726 18.6956 4.48031 18.4586 4.48031 18.1675V17.6394H6.59596V18.1675H6.59258ZM26.6896 18.1675C26.6896 18.4586 26.4526 18.6956 26.1615 18.6956H25.1054C24.8142 18.6956 24.5773 18.4586 24.5773 18.1675V17.6394H26.6929V18.1675H26.6896ZM28.8052 14.9957C28.8052 15.8691 28.091 16.5833 27.2176 16.5833H3.94547C3.07213 16.5833 2.35789 15.8691 2.35789 14.9957V7.58925C2.35789 7.29814 2.59484 7.06118 2.88596 7.06118H5.00161C5.29272 7.06118 5.52967 7.29814 5.52967 7.58925V11.8205C5.52967 12.6939 6.24392 13.4081 7.11726 13.4081H24.0425C24.9158 13.4081 25.63 12.6939 25.63 11.8205V7.58925C25.63 7.29814 25.867 7.06118 26.1581 7.06118H28.2738C28.5649 7.06118 28.8018 7.29814 28.8018 7.58925V14.9957H28.8052Z" fill="white"/>
</g>
<defs>
<clipPath id="clip0_48_335">
<rect width="29.5238" height="20" fill="white" transform="translate(0.666748)"/>
</clipPath>
</defs>
</svg>
