<svg width="28" height="24" viewBox="0 0 28 24" fill="none" xmlns="http://www.w3.org/2000/svg">
<g clip-path="url(#clip0_109_32)">
<path d="M18.5097 10.7813C17.3076 10.7813 16.465 10.5675 16.3875 10.5434C16.2006 10.4951 16.0526 10.3503 16.0032 10.1676C15.9539 9.98483 14.7764 5.57857 18.1184 2.30662C21.4674 -0.968769 25.9656 0.189685 26.1524 0.237954C26.3393 0.286223 26.4873 0.43103 26.5367 0.613762C26.5861 0.796494 27.7635 5.20276 24.4215 8.4747C22.4826 10.371 20.1524 10.7813 18.5061 10.7813H18.5097ZM17.0009 9.56765C18.0161 9.74693 21.2382 10.0676 23.6495 7.70929C26.0608 5.35101 25.7329 2.19974 25.5496 1.20678C24.5308 1.0275 21.3123 0.706852 18.901 3.06513C16.4897 5.42342 16.8175 8.57469 17.0009 9.56765Z" fill="white"/>
<path d="M17.7764 19.3937C16.9515 19.3937 16.3734 19.242 16.3169 19.2317C16.1301 19.1834 15.982 19.0386 15.9327 18.8559C15.901 18.7248 15.0831 15.6943 17.3922 13.4429C19.7012 11.1846 22.7964 11.9844 22.9268 12.0155C23.1137 12.0637 23.2617 12.2085 23.3111 12.3913C23.3428 12.5223 24.1607 15.5529 21.8516 17.8043C20.512 19.1144 18.9115 19.3937 17.7764 19.3937ZM16.9268 18.2525C17.6812 18.3697 19.5919 18.4904 21.0761 17.0389C22.5602 15.5874 22.4368 13.7221 22.3169 12.9808C21.5625 12.8636 19.6518 12.7429 18.1677 14.1945C16.6836 15.646 16.807 17.5112 16.9268 18.2525Z" fill="white"/>
<path d="M9.47099 15.6288C7.64842 15.6288 5.08203 15.1771 2.93867 13.0809C-0.759333 9.46762 0.545015 4.61314 0.60142 4.40628C0.650773 4.22355 0.798834 4.07874 0.985673 4.03047C1.19366 3.9753 6.16429 2.69963 9.85876 6.3129C13.5532 9.92617 12.2489 14.7806 12.1925 14.9875C12.1431 15.1702 11.9951 15.3151 11.8082 15.3633C11.7201 15.384 10.7894 15.6288 9.46746 15.6288H9.47099ZM1.59907 4.9993C1.40165 6.06466 0.982148 9.64346 3.72128 12.3189C6.45336 14.991 10.1161 14.5876 11.2054 14.3945C11.4028 13.3291 11.8223 9.75034 9.08321 7.07486C6.35113 4.39593 2.68838 4.80622 1.59907 4.9993Z" fill="white"/>
<path d="M17.0821 10.2468L21.1079 6.30944C21.323 6.09912 21.323 5.76124 21.1079 5.55092C20.8929 5.34061 20.5474 5.34061 20.3324 5.55092L16.3065 9.48829C14.5368 11.2191 13.5639 13.5187 13.5639 15.9632V16.4907C13.1338 15.7046 12.5838 14.9806 11.9211 14.3359L6.79182 9.31935C6.57678 9.10903 6.2313 9.10903 6.01626 9.31935C5.80122 9.52966 5.80122 9.86755 6.01626 10.0779L11.1455 15.0944C12.7037 16.6183 13.5639 18.649 13.5639 20.8039V23.1587C13.5639 23.4552 13.8106 23.6966 14.1138 23.6966C14.417 23.6966 14.6637 23.4552 14.6637 23.1587V23.1415C14.6637 21.5486 15.3406 20.5626 16.4369 19.4903L20.0116 16.0011C20.2266 15.7908 20.2266 15.4529 20.0116 15.2426C19.7965 15.0323 19.451 15.0323 19.236 15.2426L15.6614 18.7318C15.2877 19.0973 14.9563 19.4627 14.6637 19.8523V15.9563C14.6637 13.7946 15.5239 11.7707 17.0821 10.2468Z" fill="white"/>
<path d="M27.3335 24H0.894043V22.9243H27.3335V24Z" fill="white"/>
</g>
<defs>
<clipPath id="clip0_109_32">
<rect width="27" height="24" fill="white" transform="translate(0.333496)"/>
</clipPath>
</defs>
</svg>
