<svg width="20" height="20" viewBox="0 0 20 20" fill="none" xmlns="http://www.w3.org/2000/svg">
<g clip-path="url(#clip0_108_14)">
<path d="M19.0712 5.73123L11.202 0.368067C10.4715 -0.124642 9.51437 -0.124642 8.7838 0.368067L0.914626 5.74822C0.351126 6.13049 0.00849497 6.76478 0 7.44721V17.9045C0.00849497 19.0683 0.959932 20.0056 2.12374 19.9999H17.8621C19.0259 20.0056 19.9773 19.0683 19.9858 17.9045V7.44721C19.983 6.75912 19.6404 6.11633 19.0712 5.73123ZM18.57 17.9074C18.5615 18.2896 18.2444 18.5926 17.8621 18.587H2.12374C1.74147 18.5926 1.42432 18.2896 1.41583 17.9074V7.44721C1.41583 7.22068 1.52626 7.0083 1.71315 6.88088L9.58233 1.50073C9.83152 1.33366 10.1543 1.33366 10.4035 1.50073L18.2727 6.88088C18.4596 7.0083 18.5728 7.22068 18.57 7.44721V17.9074Z" fill="white"/>
<path d="M12.1166 9.48602H7.8691C6.70529 9.47752 5.75386 10.4148 5.74536 11.5786V19.2864C5.74536 19.6772 6.06251 19.9943 6.45328 19.9943C6.84404 19.9943 7.16119 19.6772 7.16119 19.2864V11.5786C7.16969 11.1963 7.48683 10.8934 7.8691 10.9018H12.1166C12.4989 10.8934 12.816 11.1963 12.8245 11.5786V19.2921C12.8245 19.6828 13.1417 20 13.5324 20C13.9232 20 14.2403 19.6828 14.2403 19.2921V11.5786C14.2318 10.4148 13.2804 9.47752 12.1166 9.48602Z" fill="white"/>
</g>
<defs>
<clipPath id="clip0_108_14">
<rect width="19.9858" height="20" fill="white"/>
</clipPath>
</defs>
</svg>
